<?xml version="1.0" encoding="UTF-8"?>
<svg xmlns="http://www.w3.org/2000/svg" xmlns:xlink="http://www.w3.org/1999/xlink" width="224px" height="50px" viewBox="0 0 170 38" version="1.1">
<g id="surface1">
<path style=" stroke:none;fill-rule:nonzero;fill:rgb(0%,60%,100%);fill-opacity:1;" d="M 0 37.917969 L 7.085938 34.132812 C 14.164062 30.347656 28.335938 22.78125 42.5 17.105469 C 56.664062 11.4375 70.835938 7.652344 85 10.804688 C 99.164062 13.917969 113.335938 24.082031 127.5 24.675781 C 141.664062 25.265625 155.835938 16.519531 162.914062 12.058594 L 170 7.652344 L 170 0.0820312 L 162.914062 0.0820312 C 155.835938 0.0820312 141.664062 0.0820312 127.5 0.0820312 C 113.335938 0.0820312 99.164062 0.0820312 85 0.0820312 C 70.835938 0.0820312 56.664062 0.0820312 42.5 0.0820312 C 28.335938 0.0820312 14.164062 0.0820312 7.085938 0.0820312 L 0 0.0820312 Z M 0 37.917969 "/>
</g>
</svg>
